# MagicaVoxel @ Ephtracy

# group
o 

# material
mtllib Dice.mtl
usemtl palette

# normals
vn -1 0 0
vn 1 0 0
vn 0 0 1
vn 0 0 -1
vn 0 -1 0
vn 0 1 0

# texcoords
vt 0.544922 0.5
vt 0.775391 0.5
vt 0.841797 0.5
vt 0.853516 0.5
vt 0.951172 0.5
vt 0.958984 0.5

# verts
v -2 0 2
v -2 0 -2
v -2 1 0.9
v -2 1 -0.9
v -2 2.8 0.9
v -2 2.8 -0.9
v -2 3.9 -1.3
v -2 3.9 -1.8
v -2 3.9 -2
v -2 4 2
v -2 4 -1.3
v -2 4 -1.8
v -2 4 -2
v -1.9 1 0.9
v -1.9 1 -0.9
v -1.9 1.4 0.3
v -1.9 1.4 -0.4
v -1.9 1.6 0.0999999
v -1.9 1.6 -0.4
v -1.9 1.9 0.0999999
v -1.9 1.9 -0.5
v -1.9 2 0.0999999
v -1.9 2 -0.5
v -1.9 2.2 0.4
v -1.9 2.2 0.3
v -1.9 2.3 0.4
v -1.9 2.3 0.3
v -1.9 2.4 0.0999999
v -1.9 2.4 -0.5
v -1.9 2.5 0.3
v -1.9 2.5 -0.5
v -1.9 2.8 0.9
v -1.9 2.8 -0.9
v 1 0 1
v 1 0 -1.2
v 1 0.1 1
v 1 0.1 -1.2
v 1 1 -1.9
v 1 1 -2
v 1 2.9 -1.9
v 1 2.9 -2
v 1.1 3.9 1.3
v 1.1 3.9 1.2
v 1.1 4 1.3
v 1.1 4 1.2
v 1.2 0.9 2
v 1.2 0.9 1.9
v 1.2 3.2 2
v 1.2 3.2 1.9
v 1.2 3.9 1.2
v 1.2 3.9 -1.3
v 1.2 4 1.2
v 1.2 4 -1.3
v -1.2 3.9 1.3
v -1.2 3.9 -1.3
v -1.2 4 1.3
v -1.2 4 -1.3
v -1.1 1 -1.9
v -1.1 1 -2
v -1.1 2.9 -1.9
v -1.1 2.9 -2
v -1 0.9 2
v -1 0.9 1.9
v -1 3.2 2
v -1 3.2 1.9
v -0.8 0 1
v -0.8 0 -1.2
v -0.8 0.1 1
v -0.8 0.1 -1.2
v 1.9 1.1 1
v 1.9 1.1 -1.3
v 1.9 1.3 -0.2
v 1.9 1.3 -0.3
v 1.9 2.5 0.0999999
v 1.9 2.5 -0.2
v 1.9 2.6 0.0999999
v 1.9 2.6 -0.3
v 1.9 3 1
v 1.9 3 -1.3
v 2 0 2
v 2 0 -2
v 2 1.1 1
v 2 1.1 -1.3
v 2 3 1
v 2 3 -1.3
v 2 3.9 1.8
v 2 3.9 1.7
v 2 3.9 -1.3
v 2 3.9 -2
v 2 4 2
v 2 4 1.8
v 2 4 1.7
v 2 4 -1.3
v 2 4 -2
v -2 0 2
v -2 4 2
v -1 0.9 2
v -1 3.2 2
v 1.2 0.9 2
v 1.2 3.2 2
v 2 0 2
v 2 4 2
v -1 0.9 1.9
v -1 3.2 1.9
v -0.6 1.9 1.9
v -0.6 3 1.9
v -0.4 2.1 1.9
v -0.4 3 1.9
v 0.3 0.9 1.9
v 0.3 1.9 1.9
v 0.3 2.1 1.9
v 0.3 3 1.9
v 0.5 0.9 1.9
v 0.5 1.9 1.9
v 0.5 2.1 1.9
v 0.5 3 1.9
v 0.9 1.9 1.9
v 0.9 2.1 1.9
v 1.2 0.9 1.9
v 1.2 3.2 1.9
v -2 1 -0.9
v -2 2.8 -0.9
v -1.9 1 -0.9
v -1.9 2.8 -0.9
v -0.8 0 -1.2
v -0.8 0.1 -1.2
v 1 0 -1.2
v 1 0.1 -1.2
v -1.2 3.9 -1.3
v -1.2 4 -1.3
v -1.1 3.9 -1.3
v -1.1 4 -1.3
v 1.2 3.9 -1.3
v 1.2 4 -1.3
v 1.9 1.1 -1.3
v 1.9 3 -1.3
v 2 1.1 -1.3
v 2 3 -1.3
v -1.2 3.9 1.3
v -1.2 4 1.3
v 1.1 3.9 1.3
v 1.1 4 1.3
v 1.1 3.9 1.2
v 1.1 4 1.2
v 1.2 3.9 1.2
v 1.2 4 1.2
v -0.8 0 1
v -0.8 0.1 1
v 1 0 1
v 1 0.1 1
v 1.9 1.1 1
v 1.9 3 1
v 2 1.1 1
v 2 3 1
v -2 1 0.9
v -2 2.8 0.9
v -1.9 1 0.9
v -1.9 2.8 0.9
v -1.1 1 -1.9
v -1.1 2.9 -1.9
v -0.4 1.4 -1.9
v -0.4 1.5 -1.9
v -0.3 1.9 -1.9
v -0.3 2.6 -1.9
v -0.0999999 2.1 -1.9
v -0.0999999 2.4 -1.9
v 0.3 1.5 -1.9
v 0.3 1.9 -1.9
v 0.5 1.4 -1.9
v 0.5 2.1 -1.9
v 0.5 2.4 -1.9
v 0.5 2.6 -1.9
v 1 1 -1.9
v 1 2.9 -1.9
v -2 0 -2
v -2 3.9 -2
v -2 4 -2
v -1.1 1 -2
v -1.1 2.9 -2
v -1.1 3.9 -2
v -1.1 4 -2
v 1 1 -2
v 1 2.9 -2
v 1.8 3.9 -2
v 1.8 4 -2
v 2 0 -2
v 2 3.9 -2
v 2 4 -2
v -2 0 2
v 2 0 2
v -0.8 0 1
v 1 0 1
v -0.8 0 -1.2
v 1 0 -1.2
v -2 0 -2
v 2 0 -2
v -0.8 0.1 1
v 1 0.1 1
v -0.3 0.1 0.9
v 0.8 0.1 0.9
v -0.2 0.1 0.8
v 0.8 0.1 0.8
v -0.2 0.1 0.3
v 0.7 0.1 0.3
v -0.3 0.1 0.2
v 0.6 0.1 0.2
v -0.4 0.1 -0.4
v 0.6 0.1 -0.4
v -0.4 0.1 -0.6
v 0.7 0.1 -0.6
v -0.8 0.1 -1.2
v 1 0.1 -1.2
v -2 2.8 0.9
v -1.9 2.8 0.9
v -2 2.8 -0.9
v -1.9 2.8 -0.9
v -1.1 2.9 -1.9
v 1 2.9 -1.9
v -1.1 2.9 -2
v 1 2.9 -2
v 1.9 3 1
v 2 3 1
v 1.9 3 -1.3
v 2 3 -1.3
v -1 3.2 2
v 1.2 3.2 2
v -1 3.2 1.9
v 1.2 3.2 1.9
v -1 0.9 2
v 1.2 0.9 2
v -1 0.9 1.9
v 0.3 0.9 1.9
v 0.5 0.9 1.9
v 1.2 0.9 1.9
v -2 1 0.9
v -1.9 1 0.9
v -2 1 -0.9
v -1.9 1 -0.9
v -1.1 1 -1.9
v 1 1 -1.9
v -1.1 1 -2
v 1 1 -2
v 1.9 1.1 1
v 2 1.1 1
v 1.9 1.1 -1.3
v 2 1.1 -1.3
v -1.2 3.9 1.3
v 1.1 3.9 1.3
v 1.1 3.9 1.2
v 1.2 3.9 1.2
v -0.5 3.9 0.8
v 0.4 3.9 0.8
v -0.3 3.9 0.2
v 0.4 3.9 0.2
v -0.5 3.9 -0.4
v -0.4 3.9 -0.4
v -0.3 3.9 -0.4
v 0.4 3.9 -0.4
v -0.4 3.9 -0.7
v 0.4 3.9 -0.7
v -1.2 3.9 -1.3
v -1.1 3.9 -1.3
v 1.2 3.9 -1.3
v -2 4 2
v 2 4 2
v -1.9 4 1.9
v -1.8 4 1.9
v -1.6 4 1.9
v -1.5 4 1.9
v 1.8 4 1.9
v 1.9 4 1.9
v 1.7 4 1.8
v 1.8 4 1.8
v 1.9 4 1.8
v 2 4 1.8
v -1.9 4 1.7
v -1.8 4 1.7
v -1.6 4 1.7
v -1.5 4 1.7
v 1.7 4 1.7
v 1.8 4 1.7
v 1.9 4 1.7
v 2 4 1.7
v 1.8 4 1.6
v 1.9 4 1.6
v -1.2 4 1.3
v 1.1 4 1.3
v 1.1 4 1.2
v 1.2 4 1.2
v -2 4 -1.3
v -1.2 4 -1.3
v -1.1 4 -1.3
v 1.2 4 -1.3
v 2 4 -1.3
v 1.2 4 -1.4
v 1.3 4 -1.4
v 1.4 4 -1.4
v 1.9 4 -1.4
v -1.2 4 -1.5
v -1.1 4 -1.5
v 1.3 4 -1.5
v 1.4 4 -1.5
v 1.5 4 -1.5
v 1.4 4 -1.6
v 1.5 4 -1.6
v 1.6 4 -1.6
v -1.4 4 -1.7
v -1.2 4 -1.7
v 1.5 4 -1.7
v 1.6 4 -1.7
v 1.7 4 -1.7
v -2 4 -1.8
v -1.4 4 -1.8
v 1.6 4 -1.8
v 1.7 4 -1.8
v 1.8 4 -1.8
v 1.7 4 -1.9
v 1.8 4 -1.9
v 1.9 4 -1.9
v -2 4 -2
v -1.1 4 -2
v 1.8 4 -2
v 2 4 -2

# faces
f 3/6/1 2/6/1 1/6/1
f 4/6/1 2/6/1 3/6/1
f 5/6/1 3/6/1 1/6/1
f 6/6/1 2/6/1 4/6/1
f 7/6/1 2/6/1 6/6/1
f 7/6/1 6/6/1 5/6/1
f 8/6/1 2/6/1 7/6/1
f 9/6/1 2/6/1 8/6/1
f 10/6/1 5/6/1 1/6/1
f 10/6/1 7/6/1 5/6/1
f 11/4/1 8/4/1 7/4/1
f 11/6/1 7/6/1 10/6/1
f 12/2/1 9/2/1 8/2/1
f 12/4/1 8/4/1 11/4/1
f 13/2/1 9/2/1 12/2/1
f 16/6/1 15/6/1 14/6/1
f 17/6/1 15/6/1 16/6/1
f 18/5/1 17/5/1 16/5/1
f 19/6/1 15/6/1 17/6/1
f 19/5/1 17/5/1 18/5/1
f 20/5/1 18/5/1 16/5/1
f 20/6/1 19/6/1 18/6/1
f 21/6/1 15/6/1 19/6/1
f 21/6/1 19/6/1 20/6/1
f 22/5/1 20/5/1 16/5/1
f 22/5/1 21/5/1 20/5/1
f 23/6/1 15/6/1 21/6/1
f 23/5/1 21/5/1 22/5/1
f 24/6/1 16/6/1 14/6/1
f 25/5/1 22/5/1 16/5/1
f 25/6/1 16/6/1 24/6/1
f 26/6/1 24/6/1 14/6/1
f 26/5/1 25/5/1 24/5/1
f 27/5/1 22/5/1 25/5/1
f 27/5/1 25/5/1 26/5/1
f 28/6/1 23/6/1 22/6/1
f 28/5/1 22/5/1 27/5/1
f 29/6/1 15/6/1 23/6/1
f 29/6/1 23/6/1 28/6/1
f 30/5/1 28/5/1 27/5/1
f 30/6/1 27/6/1 26/6/1
f 30/5/1 29/5/1 28/5/1
f 31/6/1 15/6/1 29/6/1
f 31/5/1 29/5/1 30/5/1
f 32/6/1 30/6/1 26/6/1
f 32/6/1 26/6/1 14/6/1
f 32/6/1 31/6/1 30/6/1
f 33/6/1 15/6/1 31/6/1
f 33/6/1 31/6/1 32/6/1
f 36/6/1 35/6/1 34/6/1
f 37/6/1 35/6/1 36/6/1
f 40/6/1 39/6/1 38/6/1
f 41/6/1 39/6/1 40/6/1
f 44/6/1 43/6/1 42/6/1
f 45/6/1 43/6/1 44/6/1
f 48/6/1 47/6/1 46/6/1
f 49/6/1 47/6/1 48/6/1
f 52/6/1 51/6/1 50/6/1
f 53/6/1 51/6/1 52/6/1
f 54/6/2 55/6/2 56/6/2
f 56/6/2 55/6/2 57/6/2
f 58/6/2 59/6/2 60/6/2
f 60/6/2 59/6/2 61/6/2
f 62/6/2 63/6/2 64/6/2
f 64/6/2 63/6/2 65/6/2
f 66/6/2 67/6/2 68/6/2
f 68/6/2 67/6/2 69/6/2
f 70/6/2 71/6/2 72/6/2
f 72/6/2 71/6/2 73/6/2
f 70/6/2 72/6/2 74/6/2
f 72/5/2 73/5/2 75/5/2
f 74/6/2 72/6/2 75/6/2
f 70/6/2 74/6/2 76/6/2
f 74/5/2 75/5/2 76/5/2
f 73/6/2 71/6/2 77/6/2
f 76/5/2 75/5/2 77/5/2
f 75/5/2 73/5/2 77/5/2
f 70/6/2 76/6/2 78/6/2
f 76/6/2 77/6/2 78/6/2
f 77/6/2 71/6/2 79/6/2
f 78/6/2 77/6/2 79/6/2
f 80/6/2 81/6/2 82/6/2
f 82/6/2 81/6/2 83/6/2
f 80/6/2 82/6/2 84/6/2
f 83/6/2 81/6/2 85/6/2
f 80/6/2 84/6/2 86/6/2
f 84/6/2 85/6/2 86/6/2
f 86/6/2 85/6/2 87/6/2
f 85/6/2 81/6/2 88/6/2
f 87/6/2 85/6/2 88/6/2
f 88/6/2 81/6/2 89/6/2
f 80/6/2 86/6/2 90/6/2
f 86/1/2 87/1/2 91/1/2
f 90/6/2 86/6/2 91/6/2
f 87/6/2 88/6/2 92/6/2
f 91/1/2 87/1/2 92/1/2
f 88/4/2 89/4/2 93/4/2
f 92/6/2 88/6/2 93/6/2
f 93/4/2 89/4/2 94/4/2
f 97/6/3 96/6/3 95/6/3
f 98/6/3 96/6/3 97/6/3
f 99/6/3 97/6/3 95/6/3
f 100/6/3 96/6/3 98/6/3
f 101/6/3 99/6/3 95/6/3
f 101/6/3 100/6/3 99/6/3
f 102/6/3 96/6/3 100/6/3
f 102/6/3 100/6/3 101/6/3
f 105/6/3 104/6/3 103/6/3
f 106/6/3 104/6/3 105/6/3
f 107/5/3 106/5/3 105/5/3
f 108/6/3 104/6/3 106/6/3
f 108/5/3 106/5/3 107/5/3
f 109/6/3 105/6/3 103/6/3
f 110/5/3 107/5/3 105/5/3
f 110/6/3 105/6/3 109/6/3
f 111/6/3 108/6/3 107/6/3
f 111/5/3 107/5/3 110/5/3
f 112/6/3 104/6/3 108/6/3
f 112/6/3 108/6/3 111/6/3
f 113/5/3 111/5/3 110/5/3
f 113/5/3 110/5/3 109/5/3
f 113/5/3 112/5/3 111/5/3
f 114/5/3 112/5/3 113/5/3
f 115/5/3 112/5/3 114/5/3
f 116/6/3 104/6/3 112/6/3
f 116/5/3 112/5/3 115/5/3
f 117/5/3 115/5/3 114/5/3
f 117/6/3 114/6/3 113/6/3
f 118/6/3 116/6/3 115/6/3
f 118/5/3 115/5/3 117/5/3
f 119/6/3 117/6/3 113/6/3
f 119/6/3 118/6/3 117/6/3
f 120/6/3 104/6/3 116/6/3
f 120/6/3 118/6/3 119/6/3
f 120/6/3 116/6/3 118/6/3
f 123/6/3 122/6/3 121/6/3
f 124/6/3 122/6/3 123/6/3
f 127/6/3 126/6/3 125/6/3
f 128/6/3 126/6/3 127/6/3
f 131/4/3 130/4/3 129/4/3
f 132/4/3 130/4/3 131/4/3
f 133/6/3 132/6/3 131/6/3
f 134/6/3 132/6/3 133/6/3
f 137/6/3 136/6/3 135/6/3
f 138/6/3 136/6/3 137/6/3
f 139/6/4 140/6/4 141/6/4
f 141/6/4 140/6/4 142/6/4
f 143/6/4 144/6/4 145/6/4
f 145/6/4 144/6/4 146/6/4
f 147/6/4 148/6/4 149/6/4
f 149/6/4 148/6/4 150/6/4
f 151/6/4 152/6/4 153/6/4
f 153/6/4 152/6/4 154/6/4
f 155/6/4 156/6/4 157/6/4
f 157/6/4 156/6/4 158/6/4
f 159/6/4 160/6/4 161/6/4
f 161/6/4 160/6/4 162/6/4
f 162/6/4 160/6/4 163/6/4
f 163/6/4 160/6/4 164/6/4
f 163/5/4 164/5/4 165/5/4
f 165/5/4 164/5/4 166/5/4
f 161/5/4 162/5/4 167/5/4
f 162/6/4 163/6/4 167/6/4
f 163/5/4 165/5/4 168/5/4
f 167/6/4 163/6/4 168/6/4
f 159/6/4 161/6/4 169/6/4
f 161/5/4 167/5/4 169/5/4
f 167/5/4 168/5/4 169/5/4
f 168/5/4 165/5/4 170/5/4
f 169/5/4 168/5/4 170/5/4
f 165/6/4 166/6/4 170/6/4
f 166/5/4 164/5/4 171/5/4
f 170/6/4 166/6/4 171/6/4
f 164/6/4 160/6/4 172/6/4
f 171/5/4 164/5/4 172/5/4
f 159/6/4 169/6/4 173/6/4
f 169/6/4 170/6/4 173/6/4
f 171/6/4 172/6/4 173/6/4
f 170/6/4 171/6/4 173/6/4
f 172/6/4 160/6/4 174/6/4
f 173/6/4 172/6/4 174/6/4
f 175/6/4 176/6/4 178/6/4
f 178/6/4 176/6/4 179/6/4
f 176/2/4 177/2/4 180/2/4
f 179/6/4 176/6/4 180/6/4
f 180/2/4 177/2/4 181/2/4
f 175/6/4 178/6/4 182/6/4
f 180/6/4 181/6/4 183/6/4
f 179/6/4 180/6/4 183/6/4
f 183/6/4 181/6/4 184/6/4
f 182/6/4 183/6/4 184/6/4
f 184/6/4 181/6/4 185/6/4
f 175/6/4 182/6/4 186/6/4
f 182/6/4 184/6/4 186/6/4
f 184/4/4 185/4/4 187/4/4
f 186/6/4 184/6/4 187/6/4
f 187/4/4 185/4/4 188/4/4
f 191/6/5 190/6/5 189/6/5
f 192/6/5 190/6/5 191/6/5
f 193/6/5 191/6/5 189/6/5
f 194/6/5 190/6/5 192/6/5
f 195/6/5 193/6/5 189/6/5
f 195/6/5 194/6/5 193/6/5
f 196/6/5 190/6/5 194/6/5
f 196/6/5 194/6/5 195/6/5
f 199/6/5 198/6/5 197/6/5
f 200/6/5 198/6/5 199/6/5
f 201/5/5 200/5/5 199/5/5
f 202/6/5 198/6/5 200/6/5
f 202/5/5 200/5/5 201/5/5
f 203/5/5 201/5/5 199/5/5
f 203/6/5 202/6/5 201/6/5
f 204/6/5 202/6/5 203/6/5
f 205/6/5 199/6/5 197/6/5
f 205/5/5 203/5/5 199/5/5
f 205/5/5 204/5/5 203/5/5
f 206/5/5 204/5/5 205/5/5
f 207/6/5 205/6/5 197/6/5
f 207/6/5 206/6/5 205/6/5
f 208/5/5 204/5/5 206/5/5
f 208/6/5 206/6/5 207/6/5
f 209/6/5 207/6/5 197/6/5
f 209/5/5 208/5/5 207/5/5
f 210/6/5 202/6/5 204/6/5
f 210/5/5 208/5/5 209/5/5
f 210/5/5 204/5/5 208/5/5
f 211/6/5 209/6/5 197/6/5
f 211/6/5 210/6/5 209/6/5
f 212/6/5 202/6/5 210/6/5
f 212/6/5 210/6/5 211/6/5
f 212/6/5 198/6/5 202/6/5
f 215/6/5 214/6/5 213/6/5
f 216/6/5 214/6/5 215/6/5
f 219/6/5 218/6/5 217/6/5
f 220/6/5 218/6/5 219/6/5
f 223/6/5 222/6/5 221/6/5
f 224/6/5 222/6/5 223/6/5
f 227/6/5 226/6/5 225/6/5
f 228/6/5 226/6/5 227/6/5
f 229/6/6 230/6/6 231/6/6
f 231/6/6 230/6/6 232/6/6
f 232/6/6 230/6/6 233/6/6
f 233/6/6 230/6/6 234/6/6
f 235/6/6 236/6/6 237/6/6
f 237/6/6 236/6/6 238/6/6
f 239/6/6 240/6/6 241/6/6
f 241/6/6 240/6/6 242/6/6
f 243/6/6 244/6/6 245/6/6
f 245/6/6 244/6/6 246/6/6
f 247/6/6 248/6/6 249/6/6
f 247/6/6 249/6/6 251/6/6
f 249/6/6 250/6/6 251/6/6
f 251/6/6 250/6/6 252/6/6
f 251/5/6 252/5/6 253/5/6
f 252/6/6 250/6/6 254/6/6
f 253/5/6 252/5/6 254/5/6
f 247/6/6 251/6/6 255/6/6
f 251/5/6 253/5/6 255/5/6
f 255/5/6 253/5/6 256/5/6
f 253/6/6 254/6/6 257/6/6
f 256/5/6 253/5/6 257/5/6
f 254/6/6 250/6/6 258/6/6
f 257/6/6 254/6/6 258/6/6
f 256/5/6 257/5/6 259/5/6
f 255/6/6 256/6/6 259/6/6
f 257/5/6 258/5/6 259/5/6
f 258/6/6 250/6/6 260/6/6
f 259/5/6 258/5/6 260/5/6
f 255/6/6 259/6/6 261/6/6
f 247/6/6 255/6/6 261/6/6
f 259/6/6 260/6/6 261/6/6
f 261/6/6 260/6/6 262/6/6
f 260/6/6 250/6/6 263/6/6
f 262/6/6 260/6/6 263/6/6
f 264/6/6 265/6/6 266/6/6
f 266/6/6 265/6/6 267/6/6
f 267/6/6 265/6/6 268/6/6
f 268/6/6 265/6/6 269/6/6
f 269/6/6 265/6/6 270/6/6
f 270/6/6 265/6/6 271/6/6
f 269/6/6 270/6/6 272/6/6
f 270/1/6 271/1/6 273/1/6
f 272/6/6 270/6/6 273/6/6
f 271/6/6 265/6/6 274/6/6
f 273/1/6 271/1/6 274/1/6
f 274/6/6 265/6/6 275/6/6
f 264/6/6 266/6/6 276/6/6
f 266/1/6 267/1/6 276/1/6
f 267/3/6 268/3/6 277/3/6
f 276/1/6 267/1/6 277/1/6
f 268/1/6 269/1/6 278/1/6
f 277/3/6 268/3/6 278/3/6
f 269/6/6 272/6/6 279/6/6
f 278/1/6 269/1/6 279/1/6
f 272/1/6 273/1/6 280/1/6
f 279/6/6 272/6/6 280/6/6
f 273/3/6 274/3/6 281/3/6
f 280/1/6 273/1/6 281/1/6
f 274/1/6 275/1/6 282/1/6
f 281/3/6 274/3/6 282/3/6
f 282/1/6 275/1/6 283/1/6
f 280/6/6 281/6/6 284/6/6
f 276/6/6 277/6/6 284/6/6
f 278/6/6 279/6/6 284/6/6
f 281/1/6 282/1/6 284/1/6
f 279/6/6 280/6/6 284/6/6
f 277/6/6 278/6/6 284/6/6
f 282/6/6 283/6/6 285/6/6
f 284/1/6 282/1/6 285/1/6
f 276/6/6 284/6/6 286/6/6
f 284/6/6 285/6/6 286/6/6
f 286/6/6 285/6/6 287/6/6
f 287/6/6 285/6/6 288/6/6
f 288/6/6 285/6/6 289/6/6
f 264/6/6 276/6/6 290/6/6
f 276/6/6 286/6/6 290/6/6
f 290/6/6 286/6/6 291/6/6
f 289/6/6 285/6/6 293/6/6
f 285/6/6 283/6/6 294/6/6
f 293/6/6 285/6/6 294/6/6
f 292/6/6 293/6/6 295/6/6
f 293/4/6 294/4/6 295/4/6
f 295/4/6 294/4/6 296/4/6
f 296/4/6 294/4/6 297/4/6
f 297/4/6 294/4/6 298/4/6
f 291/4/6 292/4/6 299/4/6
f 290/4/6 291/4/6 299/4/6
f 292/6/6 295/6/6 300/6/6
f 299/4/6 292/4/6 300/4/6
f 295/6/6 296/6/6 300/6/6
f 296/4/6 297/4/6 301/4/6
f 300/6/6 296/6/6 301/6/6
f 297/2/6 298/2/6 302/2/6
f 301/4/6 297/4/6 302/4/6
f 302/2/6 298/2/6 303/2/6
f 300/6/6 301/6/6 304/6/6
f 301/6/6 302/6/6 304/6/6
f 302/4/6 303/4/6 304/4/6
f 303/2/6 298/2/6 305/2/6
f 304/4/6 303/4/6 305/4/6
f 305/2/6 298/2/6 306/2/6
f 290/4/6 299/4/6 307/4/6
f 299/2/6 300/2/6 308/2/6
f 307/4/6 299/4/6 308/4/6
f 304/6/6 305/6/6 309/6/6
f 305/4/6 306/4/6 309/4/6
f 306/2/6 298/2/6 310/2/6
f 309/4/6 306/4/6 310/4/6
f 310/2/6 298/2/6 311/2/6
f 290/4/6 307/4/6 312/4/6
f 307/2/6 308/2/6 313/2/6
f 312/4/6 307/4/6 313/4/6
f 309/6/6 310/6/6 314/6/6
f 310/4/6 311/4/6 314/4/6
f 311/2/6 298/2/6 315/2/6
f 314/4/6 311/4/6 315/4/6
f 315/2/6 298/2/6 316/2/6
f 314/6/6 315/6/6 317/6/6
f 315/4/6 316/4/6 317/4/6
f 316/2/6 298/2/6 318/2/6
f 317/4/6 316/4/6 318/4/6
f 298/4/6 294/4/6 319/4/6
f 318/2/6 298/2/6 319/2/6
f 312/2/6 313/2/6 320/2/6
f 317/6/6 318/6/6 321/6/6
f 320/2/6 313/2/6 321/2/6
f 300/6/6 304/6/6 321/6/6
f 304/6/6 309/6/6 321/6/6
f 314/6/6 317/6/6 321/6/6
f 309/6/6 314/6/6 321/6/6
f 313/2/6 308/2/6 321/2/6
f 308/2/6 300/2/6 321/2/6
f 318/4/6 319/4/6 322/4/6
f 321/6/6 318/6/6 322/6/6
f 319/4/6 294/4/6 323/4/6
f 322/4/6 319/4/6 323/4/6
