# MagicaVoxel @ Ephtracy

# group
o 

# material
mtllib Dice2.mtl
usemtl palette

# normals
vn -1 0 0
vn 1 0 0
vn 0 0 1
vn 0 0 -1
vn 0 -1 0
vn 0 1 0

# texcoords
vt 0.822266 0.5
vt 0.841797 0.5
vt 0.923828 0.5
vt 0.927734 0.5
vt 0.958984 0.5

# verts
v -0.1 0 0.1
v -0.1 0 -0.2
v -0.1 0.1 0
v -0.1 0.1 -0.1
v -0.1 0.2 0
v -0.1 0.2 -0.1
v -0.1 0.2 -0.2
v -0.1 0.3 0.1
v -0.1 0.3 0
v -0.1 0.3 -0.2
v 0.1 0.1 0
v 0.1 0.1 -0.1
v 0.1 0.2 0
v 0.1 0.2 -0.1
v 0 0.1 0
v 0 0.1 -0.1
v 0 0.2 0
v 0 0.2 -0.1
v 0.2 0 0.1
v 0.2 0 0
v 0.2 0 -0.2
v 0.2 0.1 0
v 0.2 0.1 -0.1
v 0.2 0.1 -0.2
v 0.2 0.2 0.1
v 0.2 0.2 0
v 0.2 0.2 -0.1
v 0.2 0.3 0.1
v 0.2 0.3 0
v 0.2 0.3 -0.2
v -0.1 0 0.1
v -0.1 0.3 0.1
v 0 0.1 0.1
v 0 0.2 0.1
v 0 0.3 0.1
v 0.1 0.1 0.1
v 0.1 0.2 0.1
v 0.2 0 0.1
v 0.2 0.2 0.1
v 0.2 0.3 0.1
v 0 0.1 -0.1
v 0 0.2 -0.1
v 0.1 0.1 -0.1
v 0.1 0.2 -0.1
v 0 0.1 0
v 0 0.2 0
v 0.1 0.1 0
v 0.1 0.2 0
v -0.1 0 -0.2
v -0.1 0.2 -0.2
v -0.1 0.3 -0.2
v 0 0 -0.2
v 0 0.2 -0.2
v 0 0.3 -0.2
v 0.1 0 -0.2
v 0.1 0.1 -0.2
v 0.1 0.2 -0.2
v 0.2 0 -0.2
v 0.2 0.1 -0.2
v 0.2 0.3 -0.2
v -0.1 0 0.1
v 0.2 0 0.1
v 0 0 0
v 0.1 0 0
v 0.2 0 0
v -0.1 0 -0.2
v 0 0 -0.2
v 0.1 0 -0.2
v 0.2 0 -0.2
v 0 0.2 0
v 0.1 0.2 0
v 0 0.2 -0.1
v 0.1 0.2 -0.1
v 0 0.1 0
v 0.1 0.1 0
v 0 0.1 -0.1
v 0.1 0.1 -0.1
v -0.1 0.3 0.1
v 0 0.3 0.1
v 0.2 0.3 0.1
v -0.1 0.3 0
v 0 0.3 0
v 0.1 0.3 0
v 0.2 0.3 0
v 0 0.3 -0.1
v 0.1 0.3 -0.1
v -0.1 0.3 -0.2
v 0 0.3 -0.2
v 0.2 0.3 -0.2

# faces
f 3/2/1 2/2/1 1/2/1
f 4/2/1 2/2/1 3/2/1
f 5/2/1 3/2/1 1/2/1
f 5/4/1 4/4/1 3/4/1
f 6/2/1 2/2/1 4/2/1
f 6/4/1 4/4/1 5/4/1
f 7/2/1 2/2/1 6/2/1
f 8/2/1 5/2/1 1/2/1
f 9/5/1 6/5/1 5/5/1
f 9/2/1 5/2/1 8/2/1
f 9/5/1 7/5/1 6/5/1
f 10/5/1 7/5/1 9/5/1
f 13/2/1 12/2/1 11/2/1
f 14/2/1 12/2/1 13/2/1
f 15/4/2 16/4/2 17/4/2
f 17/4/2 16/4/2 18/4/2
f 19/2/2 20/2/2 22/2/2
f 20/5/2 21/5/2 22/5/2
f 22/5/2 21/5/2 23/5/2
f 23/5/2 21/5/2 24/5/2
f 19/2/2 22/2/2 25/2/2
f 22/2/2 23/2/2 25/2/2
f 25/2/2 23/2/2 26/2/2
f 23/1/2 24/1/2 27/1/2
f 26/2/2 23/2/2 27/2/2
f 25/5/2 26/5/2 28/5/2
f 26/1/2 27/1/2 29/1/2
f 28/5/2 26/5/2 29/5/2
f 27/1/2 24/1/2 30/1/2
f 29/1/2 27/1/2 30/1/2
f 33/2/3 32/2/3 31/2/3
f 34/2/3 32/2/3 33/2/3
f 35/2/3 32/2/3 34/2/3
f 36/2/3 33/2/3 31/2/3
f 36/4/3 34/4/3 33/4/3
f 37/5/3 35/5/3 34/5/3
f 37/4/3 34/4/3 36/4/3
f 38/2/3 36/2/3 31/2/3
f 38/2/3 37/2/3 36/2/3
f 39/5/3 35/5/3 37/5/3
f 39/2/3 37/2/3 38/2/3
f 40/5/3 35/5/3 39/5/3
f 43/3/3 42/3/3 41/3/3
f 44/3/3 42/3/3 43/3/3
f 45/4/4 46/4/4 47/4/4
f 47/4/4 46/4/4 48/4/4
f 49/2/4 50/2/4 52/2/4
f 50/5/4 51/5/4 53/5/4
f 52/2/4 50/2/4 53/2/4
f 53/5/4 51/5/4 54/5/4
f 52/3/4 53/3/4 55/3/4
f 55/3/4 53/3/4 56/3/4
f 53/1/4 54/1/4 57/1/4
f 56/3/4 53/3/4 57/3/4
f 55/5/4 56/5/4 58/5/4
f 56/1/4 57/1/4 59/1/4
f 58/5/4 56/5/4 59/5/4
f 57/1/4 54/1/4 60/1/4
f 59/1/4 57/1/4 60/1/4
f 63/2/5 62/2/5 61/2/5
f 64/2/5 62/2/5 63/2/5
f 65/2/5 62/2/5 64/2/5
f 66/2/5 63/2/5 61/2/5
f 67/3/5 64/3/5 63/3/5
f 67/2/5 63/2/5 66/2/5
f 68/5/5 65/5/5 64/5/5
f 68/3/5 64/3/5 67/3/5
f 69/5/5 65/5/5 68/5/5
f 72/2/5 71/2/5 70/2/5
f 73/2/5 71/2/5 72/2/5
f 74/3/6 75/3/6 76/3/6
f 76/3/6 75/3/6 77/3/6
f 78/2/6 79/2/6 81/2/6
f 79/5/6 80/5/6 82/5/6
f 81/2/6 79/2/6 82/2/6
f 82/5/6 80/5/6 83/5/6
f 83/5/6 80/5/6 84/5/6
f 81/5/6 82/5/6 85/5/6
f 82/2/6 83/2/6 85/2/6
f 83/1/6 84/1/6 86/1/6
f 85/2/6 83/2/6 86/2/6
f 81/5/6 85/5/6 87/5/6
f 85/1/6 86/1/6 88/1/6
f 87/5/6 85/5/6 88/5/6
f 86/1/6 84/1/6 89/1/6
f 88/1/6 86/1/6 89/1/6
