# MagicaVoxel @ Ephtracy

# group
o 

# material
mtllib Dog.mtl
usemtl palette

# normals
vn -1 0 0
vn 1 0 0
vn 0 0 1
vn 0 0 -1
vn 0 -1 0
vn 0 1 0

# texcoords
vt 0.134766 0.5
vt 0.248047 0.5
vt 0.369141 0.5
vt 0.955078 0.5
vt 0.958984 0.5
vt 0.994141 0.5

# verts
v -1.6 0 1.5
v -1.6 0 1.2
v -1.6 0 0.3
v -1.6 0 0.2
v -1.6 0 0
v -1.6 0.1 1.5
v -1.6 0.1 1.4
v -1.6 0.1 0.3
v -1.6 0.1 0.2
v -1.6 0.1 0.0999999
v -1.6 0.2 1.4
v -1.6 0.2 1.3
v -1.6 0.3 1.3
v -1.6 0.3 1.2
v -1.6 0.9 1.2
v -1.6 0.9 0.0999999
v -1.6 1.1 1.3
v -1.6 1.1 0
v -1.6 1.4 1.6
v -1.6 1.4 0.7
v -1.6 1.5 0.8
v -1.6 1.5 0.7
v -1.6 1.6 0.9
v -1.6 1.6 0.8
v -1.6 1.7 1
v -1.6 1.7 0.9
v -1.6 1.8 1.6
v -1.6 1.8 1.4
v -1.6 1.8 1.3
v -1.6 1.8 1
v -1.6 2 1.5
v -1.6 2 1.4
v -1.6 2 1.3
v -1.6 2.1 1.5
v -1.6 2.1 1.3
v -1.5 1.1 1.3
v -1.5 1.1 0.0999999
v -1.5 1.2 1.8
v -1.5 1.2 1.6
v -1.5 1.2 1.3
v -1.5 1.2 0.7
v -1.5 1.2 0.0999999
v -1.5 1.3 1.8
v -1.5 1.3 1.6
v -1.5 1.4 1.8
v -1.5 1.4 1.6
v -1.5 1.4 0.7
v -1.5 1.5 1.8
v -1.5 1.5 1.7
v -1.5 1.5 1.6
v -1.5 1.6 1.7
v -1.5 1.6 1.6
v -1.5 1.7 1.7
v -1.5 1.7 1.6
v -1.2 1.5 1.7
v -1.2 1.5 1.6
v -1.2 1.6 1.7
v -1.2 1.6 1.6
v -1.2 1.7 1.7
v -1.2 1.7 1.6
v -1.1 1.8 1.4
v -1.1 1.8 1.3
v -1.1 2 1.5
v -1.1 2 1.4
v -1.1 2 1.3
v -1.1 2.1 1.5
v -1.1 2.1 1.3
v -1 0 1.5
v -1 0 1.2
v -1 0 0.3
v -1 0 0.2
v -1 0 0
v -1 0.1 1.5
v -1 0.1 1.4
v -1 0.1 0.3
v -1 0.1 0.2
v -1 0.1 0.0999999
v -1 0.2 1.4
v -1 0.2 1.3
v -1 0.3 1.3
v -1 0.3 1.2
v -1 0.9 1.3
v -1 0.9 1.2
v -1 0.9 0.0999999
v -1 0.9 0
v -1.5 0 1.5
v -1.5 0 1.2
v -1.5 0 0.3
v -1.5 0 0.2
v -1.5 0 0
v -1.5 0.1 1.5
v -1.5 0.1 1.4
v -1.5 0.1 0.3
v -1.5 0.1 0.2
v -1.5 0.1 0.0999999
v -1.5 0.2 1.4
v -1.5 0.2 1.3
v -1.5 0.3 1.3
v -1.5 0.3 1.2
v -1.5 0.9 1.3
v -1.5 0.9 1.2
v -1.5 0.9 0.0999999
v -1.5 0.9 0
v -1.4 1.8 1.4
v -1.4 1.8 1.3
v -1.4 2 1.5
v -1.4 2 1.4
v -1.4 2 1.3
v -1.4 2.1 1.5
v -1.4 2.1 1.3
v -1.3 1.5 1.7
v -1.3 1.5 1.6
v -1.3 1.6 1.7
v -1.3 1.6 1.6
v -1.3 1.7 1.7
v -1.3 1.7 1.6
v -1 1.1 1.3
v -1 1.1 0.0999999
v -1 1.2 1.8
v -1 1.2 1.6
v -1 1.2 1.3
v -1 1.2 0.7
v -1 1.2 0.0999999
v -1 1.3 1.8
v -1 1.3 1.6
v -1 1.4 1.8
v -1 1.4 1.6
v -1 1.4 0.7
v -1 1.5 1.8
v -1 1.5 1.7
v -1 1.5 1.6
v -1 1.6 1.7
v -1 1.6 1.6
v -1 1.7 1.7
v -1 1.7 1.6
v -0.9 0 1.5
v -0.9 0 1.2
v -0.9 0 0.3
v -0.9 0 0.2
v -0.9 0 0
v -0.9 0.1 1.5
v -0.9 0.1 1.4
v -0.9 0.1 0.3
v -0.9 0.1 0.2
v -0.9 0.1 0.0999999
v -0.9 0.2 1.4
v -0.9 0.2 1.3
v -0.9 0.3 1.3
v -0.9 0.3 1.2
v -0.9 0.9 1.2
v -0.9 0.9 0.0999999
v -0.9 1.1 1.3
v -0.9 1.1 0
v -0.9 1.4 1.6
v -0.9 1.4 0.7
v -0.9 1.5 0.8
v -0.9 1.5 0.7
v -0.9 1.6 0.9
v -0.9 1.6 0.8
v -0.9 1.7 1
v -0.9 1.7 0.9
v -0.9 1.8 1.6
v -0.9 1.8 1.4
v -0.9 1.8 1.3
v -0.9 1.8 1
v -0.9 2 1.5
v -0.9 2 1.4
v -0.9 2 1.3
v -0.9 2.1 1.5
v -0.9 2.1 1.3
v -1.5 1.2 1.8
v -1.5 1.3 1.8
v -1.5 1.4 1.8
v -1.5 1.5 1.8
v -1 1.2 1.8
v -1 1.3 1.8
v -1 1.4 1.8
v -1 1.5 1.8
v -1.5 1.5 1.7
v -1.5 1.6 1.7
v -1.5 1.7 1.7
v -1.4 1.5 1.7
v -1.4 1.6 1.7
v -1.4 1.7 1.7
v -1.3 1.5 1.7
v -1.3 1.6 1.7
v -1.3 1.7 1.7
v -1.2 1.5 1.7
v -1.2 1.6 1.7
v -1.2 1.7 1.7
v -1.1 1.5 1.7
v -1.1 1.6 1.7
v -1.1 1.7 1.7
v -1 1.5 1.7
v -1 1.6 1.7
v -1 1.7 1.7
v -1.6 1.4 1.6
v -1.6 1.8 1.6
v -1.5 1.4 1.6
v -1.5 1.5 1.6
v -1.5 1.6 1.6
v -1.5 1.7 1.6
v -1.4 1.7 1.6
v -1.3 1.5 1.6
v -1.3 1.6 1.6
v -1.3 1.7 1.6
v -1.2 1.5 1.6
v -1.2 1.6 1.6
v -1.2 1.7 1.6
v -1.1 1.7 1.6
v -1 1.4 1.6
v -1 1.5 1.6
v -1 1.6 1.6
v -1 1.7 1.6
v -0.9 1.4 1.6
v -0.9 1.8 1.6
v -1.6 0 1.5
v -1.6 0.1 1.5
v -1.6 2 1.5
v -1.6 2.1 1.5
v -1.5 0 1.5
v -1.5 0.1 1.5
v -1.4 2 1.5
v -1.4 2.1 1.5
v -1.1 2 1.5
v -1.1 2.1 1.5
v -1 0 1.5
v -1 0.1 1.5
v -0.9 0 1.5
v -0.9 0.1 1.5
v -0.9 2 1.5
v -0.9 2.1 1.5
v -1.6 0.1 1.4
v -1.6 0.2 1.4
v -1.6 1.8 1.4
v -1.6 2 1.4
v -1.5 0.1 1.4
v -1.5 0.2 1.4
v -1.4 1.8 1.4
v -1.4 2 1.4
v -1.1 1.8 1.4
v -1.1 2 1.4
v -1 0.1 1.4
v -1 0.2 1.4
v -0.9 0.1 1.4
v -0.9 0.2 1.4
v -0.9 1.8 1.4
v -0.9 2 1.4
v -1.6 0.2 1.3
v -1.6 0.3 1.3
v -1.6 1.1 1.3
v -1.5 0.2 1.3
v -1.5 0.3 1.3
v -1.5 0.9 1.3
v -1.5 1.1 1.3
v -1.5 1.2 1.3
v -1 0.2 1.3
v -1 0.3 1.3
v -1 0.9 1.3
v -1 1.1 1.3
v -1 1.2 1.3
v -0.9 0.2 1.3
v -0.9 0.3 1.3
v -0.9 1.1 1.3
v -1.6 0 0.3
v -1.6 0.1 0.3
v -1.5 0 0.3
v -1.5 0.1 0.3
v -1 0 0.3
v -1 0.1 0.3
v -0.9 0 0.3
v -0.9 0.1 0.3
v -1.6 0.1 0.0999999
v -1.6 0.9 0.0999999
v -1.5 0.1 0.0999999
v -1.5 0.9 0.0999999
v -1 0.1 0.0999999
v -1 0.9 0.0999999
v -0.9 0.1 0.0999999
v -0.9 0.9 0.0999999
v -1.6 1.8 1.3
v -1.6 2 1.3
v -1.6 2.1 1.3
v -1.4 1.8 1.3
v -1.4 2 1.3
v -1.4 2.1 1.3
v -1.1 1.8 1.3
v -1.1 2 1.3
v -1.1 2.1 1.3
v -0.9 1.8 1.3
v -0.9 2 1.3
v -0.9 2.1 1.3
v -1.6 0 1.2
v -1.6 0.3 1.2
v -1.6 0.9 1.2
v -1.5 0 1.2
v -1.5 0.3 1.2
v -1.5 0.9 1.2
v -1 0 1.2
v -1 0.3 1.2
v -1 0.9 1.2
v -0.9 0 1.2
v -0.9 0.3 1.2
v -0.9 0.9 1.2
v -1.6 1.7 1
v -1.6 1.8 1
v -0.9 1.7 1
v -0.9 1.8 1
v -1.6 1.6 0.9
v -1.6 1.7 0.9
v -0.9 1.6 0.9
v -0.9 1.7 0.9
v -1.6 1.5 0.8
v -1.6 1.6 0.8
v -0.9 1.5 0.8
v -0.9 1.6 0.8
v -1.6 1.4 0.7
v -1.6 1.5 0.7
v -1.5 1.2 0.7
v -1.5 1.4 0.7
v -1 1.2 0.7
v -1 1.4 0.7
v -0.9 1.4 0.7
v -0.9 1.5 0.7
v -1.5 1.1 0.0999999
v -1.5 1.2 0.0999999
v -1 1.1 0.0999999
v -1 1.2 0.0999999
v -1.6 0 0
v -1.6 1.1 0
v -1.5 0 0
v -1.5 0.9 0
v -1 0 0
v -1 0.9 0
v -0.9 0 0
v -0.9 1.1 0
v -1.6 0 1.5
v -1.5 0 1.5
v -1 0 1.5
v -0.9 0 1.5
v -1.6 0 1.2
v -1.5 0 1.2
v -1 0 1.2
v -0.9 0 1.2
v -1.6 0 0.3
v -1.5 0 0.3
v -1 0 0.3
v -0.9 0 0.3
v -1.6 0 0.2
v -1.5 0 0.2
v -1 0 0.2
v -0.9 0 0.2
v -1.6 0 0
v -1.5 0 0
v -1 0 0
v -0.9 0 0
v -1.5 0.9 1.3
v -1 0.9 1.3
v -1.6 0.9 1.2
v -1.5 0.9 1.2
v -1 0.9 1.2
v -0.9 0.9 1.2
v -1.6 0.9 0.0999999
v -1.5 0.9 0.0999999
v -1 0.9 0.0999999
v -0.9 0.9 0.0999999
v -1.5 0.9 0
v -1 0.9 0
v -1.5 1.2 1.8
v -1 1.2 1.8
v -1.5 1.2 1.6
v -1 1.2 1.6
v -1.5 1.2 1.3
v -1 1.2 1.3
v -1.6 1.4 1.6
v -1.5 1.4 1.6
v -1 1.4 1.6
v -0.9 1.4 1.6
v -1.6 1.4 0.7
v -1.5 1.4 0.7
v -1 1.4 0.7
v -0.9 1.4 0.7
v -1.6 2 1.5
v -1.4 2 1.5
v -1.1 2 1.5
v -0.9 2 1.5
v -1.6 2 1.4
v -1.4 2 1.4
v -1.1 2 1.4
v -0.9 2 1.4
v -1.6 0.1 1.5
v -1.5 0.1 1.5
v -1 0.1 1.5
v -0.9 0.1 1.5
v -1.6 0.1 1.4
v -1.5 0.1 1.4
v -1 0.1 1.4
v -0.9 0.1 1.4
v -1.6 0.1 0.3
v -1.5 0.1 0.3
v -1 0.1 0.3
v -0.9 0.1 0.3
v -1.6 0.1 0.2
v -1.5 0.1 0.2
v -1 0.1 0.2
v -0.9 0.1 0.2
v -1.6 0.1 0.0999999
v -1.5 0.1 0.0999999
v -1 0.1 0.0999999
v -0.9 0.1 0.0999999
v -1.6 0.2 1.4
v -1.5 0.2 1.4
v -1 0.2 1.4
v -0.9 0.2 1.4
v -1.6 0.2 1.3
v -1.5 0.2 1.3
v -1 0.2 1.3
v -0.9 0.2 1.3
v -1.6 1.1 1.3
v -1.5 1.1 1.3
v -1 1.1 1.3
v -0.9 1.1 1.3
v -1.5 1.1 0.0999999
v -1 1.1 0.0999999
v -1.6 1.1 0
v -0.9 1.1 0
v -1.5 1.2 0.7
v -1 1.2 0.7
v -1.5 1.2 0.0999999
v -1 1.2 0.0999999
v -1.5 1.5 1.8
v -1 1.5 1.8
v -1.5 1.5 1.7
v -1.4 1.5 1.7
v -1.3 1.5 1.7
v -1.2 1.5 1.7
v -1.1 1.5 1.7
v -1 1.5 1.7
v -1.3 1.5 1.6
v -1.2 1.5 1.6
v -1.6 1.5 0.8
v -0.9 1.5 0.8
v -1.6 1.5 0.7
v -0.9 1.5 0.7
v -1.6 1.6 0.9
v -0.9 1.6 0.9
v -1.6 1.6 0.8
v -0.9 1.6 0.8
v -1.5 1.7 1.7
v -1.4 1.7 1.7
v -1.3 1.7 1.7
v -1.2 1.7 1.7
v -1.1 1.7 1.7
v -1 1.7 1.7
v -1.5 1.7 1.6
v -1.4 1.7 1.6
v -1.3 1.7 1.6
v -1.2 1.7 1.6
v -1.1 1.7 1.6
v -1 1.7 1.6
v -1.6 1.7 1
v -0.9 1.7 1
v -1.6 1.7 0.9
v -0.9 1.7 0.9
v -1.6 1.8 1.6
v -0.9 1.8 1.6
v -1.6 1.8 1.4
v -1.4 1.8 1.4
v -1.1 1.8 1.4
v -0.9 1.8 1.4
v -1.6 1.8 1.3
v -1.4 1.8 1.3
v -1.1 1.8 1.3
v -0.9 1.8 1.3
v -1.6 1.8 1
v -0.9 1.8 1
v -1.6 2.1 1.5
v -1.4 2.1 1.5
v -1.1 2.1 1.5
v -0.9 2.1 1.5
v -1.6 2.1 1.3
v -1.4 2.1 1.3
v -1.1 2.1 1.3
v -0.9 2.1 1.3

# faces
f 6/5/1 2/5/1 1/5/1
f 7/5/1 2/5/1 6/5/1
f 8/5/1 4/5/1 3/5/1
f 9/3/1 5/3/1 4/3/1
f 9/5/1 4/5/1 8/5/1
f 10/3/1 5/3/1 9/3/1
f 11/5/1 2/5/1 7/5/1
f 12/5/1 2/5/1 11/5/1
f 13/5/1 2/5/1 12/5/1
f 14/5/1 2/5/1 13/5/1
f 15/3/1 14/3/1 13/3/1
f 16/3/1 5/3/1 10/3/1
f 17/3/1 15/3/1 13/3/1
f 17/3/1 16/3/1 15/3/1
f 18/3/1 5/3/1 16/3/1
f 18/3/1 16/3/1 17/3/1
f 21/3/1 20/3/1 19/3/1
f 22/3/1 20/3/1 21/3/1
f 23/3/1 21/3/1 19/3/1
f 24/3/1 21/3/1 23/3/1
f 25/3/1 23/3/1 19/3/1
f 26/3/1 23/3/1 25/3/1
f 27/3/1 25/3/1 19/3/1
f 28/3/1 25/3/1 27/3/1
f 29/3/1 25/3/1 28/3/1
f 30/3/1 25/3/1 29/3/1
f 32/2/1 29/2/1 28/2/1
f 33/2/1 29/2/1 32/2/1
f 34/3/1 32/3/1 31/3/1
f 34/3/1 33/3/1 32/3/1
f 35/3/1 33/3/1 34/3/1
f 40/3/1 37/3/1 36/3/1
f 41/3/1 37/3/1 40/3/1
f 42/3/1 37/3/1 41/3/1
f 43/4/1 39/4/1 38/4/1
f 44/3/1 40/3/1 39/3/1
f 44/4/1 39/4/1 43/4/1
f 44/3/1 41/3/1 40/3/1
f 45/1/1 44/1/1 43/1/1
f 46/3/1 41/3/1 44/3/1
f 46/1/1 44/1/1 45/1/1
f 47/3/1 41/3/1 46/3/1
f 48/4/1 46/4/1 45/4/1
f 49/4/1 46/4/1 48/4/1
f 50/4/1 46/4/1 49/4/1
f 51/5/1 50/5/1 49/5/1
f 52/5/1 50/5/1 51/5/1
f 53/6/1 52/6/1 51/6/1
f 54/6/1 52/6/1 53/6/1
f 57/6/1 56/6/1 55/6/1
f 58/6/1 56/6/1 57/6/1
f 59/5/1 58/5/1 57/5/1
f 60/5/1 58/5/1 59/5/1
f 64/2/1 62/2/1 61/2/1
f 65/2/1 62/2/1 64/2/1
f 66/3/1 64/3/1 63/3/1
f 66/3/1 65/3/1 64/3/1
f 67/3/1 65/3/1 66/3/1
f 73/5/1 69/5/1 68/5/1
f 74/5/1 69/5/1 73/5/1
f 75/5/1 71/5/1 70/5/1
f 76/3/1 72/3/1 71/3/1
f 76/5/1 71/5/1 75/5/1
f 77/3/1 72/3/1 76/3/1
f 78/5/1 69/5/1 74/5/1
f 79/5/1 69/5/1 78/5/1
f 80/5/1 69/5/1 79/5/1
f 81/5/1 69/5/1 80/5/1
f 82/3/1 81/3/1 80/3/1
f 83/3/1 81/3/1 82/3/1
f 84/3/1 72/3/1 77/3/1
f 85/3/1 72/3/1 84/3/1
f 86/5/2 87/5/2 91/5/2
f 91/5/2 87/5/2 92/5/2
f 88/5/2 89/5/2 93/5/2
f 89/3/2 90/3/2 94/3/2
f 93/5/2 89/5/2 94/5/2
f 94/3/2 90/3/2 95/3/2
f 92/5/2 87/5/2 96/5/2
f 96/5/2 87/5/2 97/5/2
f 97/5/2 87/5/2 98/5/2
f 98/5/2 87/5/2 99/5/2
f 98/3/2 99/3/2 100/3/2
f 100/3/2 99/3/2 101/3/2
f 95/3/2 90/3/2 102/3/2
f 102/3/2 90/3/2 103/3/2
f 104/2/2 105/2/2 107/2/2
f 107/2/2 105/2/2 108/2/2
f 106/3/2 107/3/2 109/3/2
f 107/3/2 108/3/2 109/3/2
f 109/3/2 108/3/2 110/3/2
f 111/6/2 112/6/2 113/6/2
f 113/6/2 112/6/2 114/6/2
f 113/5/2 114/5/2 115/5/2
f 115/5/2 114/5/2 116/5/2
f 117/3/2 118/3/2 121/3/2
f 121/3/2 118/3/2 122/3/2
f 122/3/2 118/3/2 123/3/2
f 119/4/2 120/4/2 124/4/2
f 120/3/2 121/3/2 125/3/2
f 124/4/2 120/4/2 125/4/2
f 121/3/2 122/3/2 125/3/2
f 124/1/2 125/1/2 126/1/2
f 125/3/2 122/3/2 127/3/2
f 126/1/2 125/1/2 127/1/2
f 127/3/2 122/3/2 128/3/2
f 126/4/2 127/4/2 129/4/2
f 129/4/2 127/4/2 130/4/2
f 130/4/2 127/4/2 131/4/2
f 130/5/2 131/5/2 132/5/2
f 132/5/2 131/5/2 133/5/2
f 132/6/2 133/6/2 134/6/2
f 134/6/2 133/6/2 135/6/2
f 136/5/2 137/5/2 141/5/2
f 141/5/2 137/5/2 142/5/2
f 138/5/2 139/5/2 143/5/2
f 139/3/2 140/3/2 144/3/2
f 143/5/2 139/5/2 144/5/2
f 144/3/2 140/3/2 145/3/2
f 142/5/2 137/5/2 146/5/2
f 146/5/2 137/5/2 147/5/2
f 147/5/2 137/5/2 148/5/2
f 148/5/2 137/5/2 149/5/2
f 148/3/2 149/3/2 150/3/2
f 145/3/2 140/3/2 151/3/2
f 148/3/2 150/3/2 152/3/2
f 150/3/2 151/3/2 152/3/2
f 151/3/2 140/3/2 153/3/2
f 152/3/2 151/3/2 153/3/2
f 154/3/2 155/3/2 156/3/2
f 156/3/2 155/3/2 157/3/2
f 154/3/2 156/3/2 158/3/2
f 158/3/2 156/3/2 159/3/2
f 154/3/2 158/3/2 160/3/2
f 160/3/2 158/3/2 161/3/2
f 154/3/2 160/3/2 162/3/2
f 162/3/2 160/3/2 163/3/2
f 163/3/2 160/3/2 164/3/2
f 164/3/2 160/3/2 165/3/2
f 163/2/2 164/2/2 167/2/2
f 167/2/2 164/2/2 168/2/2
f 166/3/2 167/3/2 169/3/2
f 167/3/2 168/3/2 169/3/2
f 169/3/2 168/3/2 170/3/2
f 175/4/3 172/4/3 171/4/3
f 176/1/3 173/1/3 172/1/3
f 176/4/3 172/4/3 175/4/3
f 177/4/3 174/4/3 173/4/3
f 177/1/3 173/1/3 176/1/3
f 178/4/3 174/4/3 177/4/3
f 182/5/3 180/5/3 179/5/3
f 183/6/3 181/6/3 180/6/3
f 183/5/3 180/5/3 182/5/3
f 184/6/3 181/6/3 183/6/3
f 185/6/3 183/6/3 182/6/3
f 186/5/3 184/5/3 183/5/3
f 186/6/3 183/6/3 185/6/3
f 187/5/3 184/5/3 186/5/3
f 191/6/3 189/6/3 188/6/3
f 192/5/3 190/5/3 189/5/3
f 192/6/3 189/6/3 191/6/3
f 193/5/3 190/5/3 192/5/3
f 194/5/3 192/5/3 191/5/3
f 195/6/3 193/6/3 192/6/3
f 195/5/3 192/5/3 194/5/3
f 196/6/3 193/6/3 195/6/3
f 199/3/3 198/3/3 197/3/3
f 200/3/3 198/3/3 199/3/3
f 201/3/3 198/3/3 200/3/3
f 202/3/3 198/3/3 201/3/3
f 203/3/3 198/3/3 202/3/3
f 206/3/3 198/3/3 203/3/3
f 207/3/3 205/3/3 204/3/3
f 207/3/3 206/3/3 205/3/3
f 208/3/3 206/3/3 207/3/3
f 209/3/3 198/3/3 206/3/3
f 209/3/3 206/3/3 208/3/3
f 210/3/3 198/3/3 209/3/3
f 214/3/3 198/3/3 210/3/3
f 215/3/3 213/3/3 212/3/3
f 215/3/3 214/3/3 213/3/3
f 215/3/3 212/3/3 211/3/3
f 216/3/3 198/3/3 214/3/3
f 216/3/3 214/3/3 215/3/3
f 221/5/3 218/5/3 217/5/3
f 222/5/3 218/5/3 221/5/3
f 223/3/3 220/3/3 219/3/3
f 224/3/3 220/3/3 223/3/3
f 229/5/3 228/5/3 227/5/3
f 230/5/3 228/5/3 229/5/3
f 231/3/3 226/3/3 225/3/3
f 232/3/3 226/3/3 231/3/3
f 237/5/3 234/5/3 233/5/3
f 238/5/3 234/5/3 237/5/3
f 239/2/3 236/2/3 235/2/3
f 240/2/3 236/2/3 239/2/3
f 245/5/3 244/5/3 243/5/3
f 246/5/3 244/5/3 245/5/3
f 247/2/3 242/2/3 241/2/3
f 248/2/3 242/2/3 247/2/3
f 252/5/3 250/5/3 249/5/3
f 253/3/3 251/3/3 250/3/3
f 253/5/3 250/5/3 252/5/3
f 254/3/3 251/3/3 253/3/3
f 255/3/3 251/3/3 254/3/3
f 259/3/3 256/3/3 255/3/3
f 259/3/3 255/3/3 254/3/3
f 260/3/3 256/3/3 259/3/3
f 261/3/3 256/3/3 260/3/3
f 262/5/3 258/5/3 257/5/3
f 263/3/3 259/3/3 258/3/3
f 263/5/3 258/5/3 262/5/3
f 263/3/3 260/3/3 259/3/3
f 264/3/3 260/3/3 263/3/3
f 267/5/3 266/5/3 265/5/3
f 268/5/3 266/5/3 267/5/3
f 271/5/3 270/5/3 269/5/3
f 272/5/3 270/5/3 271/5/3
f 275/3/3 274/3/3 273/3/3
f 276/3/3 274/3/3 275/3/3
f 279/3/3 278/3/3 277/3/3
f 280/3/3 278/3/3 279/3/3
f 281/2/4 282/2/4 284/2/4
f 282/3/4 283/3/4 285/3/4
f 284/2/4 282/2/4 285/2/4
f 285/3/4 283/3/4 286/3/4
f 287/2/4 288/2/4 290/2/4
f 288/3/4 289/3/4 291/3/4
f 290/2/4 288/2/4 291/2/4
f 291/3/4 289/3/4 292/3/4
f 293/5/4 294/5/4 296/5/4
f 294/3/4 295/3/4 297/3/4
f 296/5/4 294/5/4 297/5/4
f 297/3/4 295/3/4 298/3/4
f 299/5/4 300/5/4 302/5/4
f 300/3/4 301/3/4 303/3/4
f 302/5/4 300/5/4 303/5/4
f 303/3/4 301/3/4 304/3/4
f 305/3/4 306/3/4 307/3/4
f 307/3/4 306/3/4 308/3/4
f 309/3/4 310/3/4 311/3/4
f 311/3/4 310/3/4 312/3/4
f 313/3/4 314/3/4 315/3/4
f 315/3/4 314/3/4 316/3/4
f 317/3/4 318/3/4 320/3/4
f 319/3/4 320/3/4 321/3/4
f 320/3/4 318/3/4 322/3/4
f 321/3/4 320/3/4 322/3/4
f 322/3/4 318/3/4 323/3/4
f 323/3/4 318/3/4 324/3/4
f 325/3/4 326/3/4 327/3/4
f 327/3/4 326/3/4 328/3/4
f 329/3/4 330/3/4 331/3/4
f 331/3/4 330/3/4 332/3/4
f 332/3/4 330/3/4 334/3/4
f 333/3/4 334/3/4 335/3/4
f 334/3/4 330/3/4 336/3/4
f 335/3/4 334/3/4 336/3/4
f 341/5/5 338/5/5 337/5/5
f 342/5/5 338/5/5 341/5/5
f 343/5/5 340/5/5 339/5/5
f 344/5/5 340/5/5 343/5/5
f 349/5/5 346/5/5 345/5/5
f 350/5/5 346/5/5 349/5/5
f 351/5/5 348/5/5 347/5/5
f 352/5/5 348/5/5 351/5/5
f 353/3/5 350/3/5 349/3/5
f 354/3/5 350/3/5 353/3/5
f 355/3/5 352/3/5 351/3/5
f 356/3/5 352/3/5 355/3/5
f 360/3/5 358/3/5 357/3/5
f 361/3/5 358/3/5 360/3/5
f 363/3/5 360/3/5 359/3/5
f 363/3/5 362/3/5 361/3/5
f 363/3/5 361/3/5 360/3/5
f 364/3/5 362/3/5 363/3/5
f 365/3/5 362/3/5 364/3/5
f 366/3/5 362/3/5 365/3/5
f 367/3/5 365/3/5 364/3/5
f 368/3/5 365/3/5 367/3/5
f 371/4/5 370/4/5 369/4/5
f 372/4/5 370/4/5 371/4/5
f 373/3/5 372/3/5 371/3/5
f 374/3/5 372/3/5 373/3/5
f 379/3/5 376/3/5 375/3/5
f 380/3/5 376/3/5 379/3/5
f 381/3/5 378/3/5 377/3/5
f 382/3/5 378/3/5 381/3/5
f 387/3/5 384/3/5 383/3/5
f 388/3/5 384/3/5 387/3/5
f 389/3/5 386/3/5 385/3/5
f 390/3/5 386/3/5 389/3/5
f 391/5/6 392/5/6 395/5/6
f 395/5/6 392/5/6 396/5/6
f 393/5/6 394/5/6 397/5/6
f 397/5/6 394/5/6 398/5/6
f 399/5/6 400/5/6 403/5/6
f 403/5/6 400/5/6 404/5/6
f 401/5/6 402/5/6 405/5/6
f 405/5/6 402/5/6 406/5/6
f 403/3/6 404/3/6 407/3/6
f 407/3/6 404/3/6 408/3/6
f 405/3/6 406/3/6 409/3/6
f 409/3/6 406/3/6 410/3/6
f 411/5/6 412/5/6 415/5/6
f 415/5/6 412/5/6 416/5/6
f 413/5/6 414/5/6 417/5/6
f 417/5/6 414/5/6 418/5/6
f 419/3/6 420/3/6 423/3/6
f 421/3/6 422/3/6 424/3/6
f 419/3/6 423/3/6 425/3/6
f 423/3/6 424/3/6 425/3/6
f 424/3/6 422/3/6 426/3/6
f 425/3/6 424/3/6 426/3/6
f 427/3/6 428/3/6 429/3/6
f 429/3/6 428/3/6 430/3/6
f 431/4/6 432/4/6 433/4/6
f 433/4/6 432/4/6 434/4/6
f 434/4/6 432/4/6 435/4/6
f 435/4/6 432/4/6 436/4/6
f 436/4/6 432/4/6 437/4/6
f 437/4/6 432/4/6 438/4/6
f 435/4/6 436/4/6 439/4/6
f 439/4/6 436/4/6 440/4/6
f 441/3/6 442/3/6 443/3/6
f 443/3/6 442/3/6 444/3/6
f 445/3/6 446/3/6 447/3/6
f 447/3/6 446/3/6 448/3/6
f 449/6/6 450/6/6 455/6/6
f 450/5/6 451/5/6 456/5/6
f 455/6/6 450/6/6 456/6/6
f 456/5/6 451/5/6 457/5/6
f 452/5/6 453/5/6 458/5/6
f 453/6/6 454/6/6 459/6/6
f 458/5/6 453/5/6 459/5/6
f 459/6/6 454/6/6 460/6/6
f 461/3/6 462/3/6 463/3/6
f 463/3/6 462/3/6 464/3/6
f 465/3/6 466/3/6 467/3/6
f 467/3/6 466/3/6 468/3/6
f 468/3/6 466/3/6 469/3/6
f 469/3/6 466/3/6 470/3/6
f 468/3/6 469/3/6 472/3/6
f 472/3/6 469/3/6 473/3/6
f 471/3/6 472/3/6 475/3/6
f 473/3/6 474/3/6 475/3/6
f 472/3/6 473/3/6 475/3/6
f 475/3/6 474/3/6 476/3/6
f 477/3/6 478/3/6 481/3/6
f 481/3/6 478/3/6 482/3/6
f 479/3/6 480/3/6 483/3/6
f 483/3/6 480/3/6 484/3/6
